<?xml version="1.0" encoding="UTF-8" standalone="no"?>
<!-- Created with Inkscape (http://www.inkscape.org/) -->

<svg
   xmlns:dc="http://purl.org/dc/elements/1.1/"
   xmlns:cc="http://creativecommons.org/ns#"
   xmlns:rdf="http://www.w3.org/1999/02/22-rdf-syntax-ns#"
   xmlns:svg="http://www.w3.org/2000/svg"
   xmlns="http://www.w3.org/2000/svg"
   xmlns:sodipodi="http://sodipodi.sourceforge.net/DTD/sodipodi-0.dtd"
   xmlns:inkscape="http://www.inkscape.org/namespaces/inkscape"
   width="106.92406mm"
   height="37.380096mm"
   viewBox="0 0 378.86477 132.44916"
   id="svg2"
   version="1.1"
   inkscape:version="0.91 r13725"
   sodipodi:docname="Mutua Madrile単a logo.svg">
  <title
     id="title5545">Mutua Madrile単a logo</title>
  <defs
     id="defs4" />
  <sodipodi:namedview
     id="base"
     pagecolor="#ffffff"
     bordercolor="#666666"
     borderopacity="1.0"
     inkscape:pageopacity="0.0"
     inkscape:pageshadow="2"
     inkscape:zoom="0.98994949"
     inkscape:cx="158.04569"
     inkscape:cy="109.01675"
     inkscape:document-units="px"
     inkscape:current-layer="g4147"
     showgrid="false"
     fit-margin-top="0"
     fit-margin-left="0"
     fit-margin-right="0"
     fit-margin-bottom="0"
     inkscape:window-width="1366"
     inkscape:window-height="705"
     inkscape:window-x="-8"
     inkscape:window-y="-8"
     inkscape:window-maximized="1" />
  <metadata
     id="metadata7">
    <rdf:RDF>
      <cc:Work
         rdf:about="">
        <dc:format>image/svg+xml</dc:format>
        <dc:type
           rdf:resource="http://purl.org/dc/dcmitype/StillImage" />
        <dc:title>Mutua Madrile単a logo</dc:title>
        <dc:date>19/11/2016</dc:date>
        <dc:creator>
          <cc:Agent>
            <dc:title>Mutua Madrile単a</dc:title>
          </cc:Agent>
        </dc:creator>
        <dc:publisher>
          <cc:Agent>
            <dc:title>CMetalCore</dc:title>
          </cc:Agent>
        </dc:publisher>
        <cc:license
           rdf:resource="http://creativecommons.org/licenses/by-sa/3.0/" />
      </cc:Work>
      <cc:License
         rdf:about="http://creativecommons.org/licenses/by-sa/3.0/">
        <cc:permits
           rdf:resource="http://creativecommons.org/ns#Reproduction" />
        <cc:permits
           rdf:resource="http://creativecommons.org/ns#Distribution" />
        <cc:requires
           rdf:resource="http://creativecommons.org/ns#Notice" />
        <cc:requires
           rdf:resource="http://creativecommons.org/ns#Attribution" />
        <cc:permits
           rdf:resource="http://creativecommons.org/ns#DerivativeWorks" />
        <cc:requires
           rdf:resource="http://creativecommons.org/ns#ShareAlike" />
      </cc:License>
    </rdf:RDF>
  </metadata>
  <g
     inkscape:label="Capa 1"
     inkscape:groupmode="layer"
     id="layer1"
     transform="translate(-136.14508,-54.56848)">
    <g
       id="g4147"
       transform="translate(-42.426407,-1004.0916)">
      <g
         id="g5615"
         transform="matrix(0.12129981,0,0,0.12129981,310.86688,1030.8322)">
        <path
           d="m 1635.0164,963.90894 c 2.7054,-16.2551 13.9024,-32.9832 24.8681,-37.1523 4.8737,-1.853 17.068,-1.5799 23.0065,0.5153 2.8067,0.9903 11.1899,5.2091 18.629,9.375 16.6205,9.3075 21.0318,9.833 27.2446,3.2455 2.4773,-2.6267 4.7173,-6.8048 5.6964,-10.625 l 1.6136,-6.296 9.9378,0 9.9379,0 -0.7049,5.9511 c -1.7014,14.3654 -9.6589,28.1217 -19.9469,34.4823 -11.8881,7.3498 -21.7445,5.9479 -43.7145,-6.2177 -8.0536,-4.4596 -16.6254,-8.4301 -19.0482,-8.8233 -3.9072,-0.634 -4.9672,-0.1531 -9.3724,4.2522 -3.2389,3.2388 -5.5086,6.9917 -6.5235,10.7862 l -1.5564,5.8192 -10.4756,0 -10.4756,0 0.8841,-5.3125 z m 333.869,230.89946 c -0.4038,-1.0521 -11.5623,-41.5318 -24.7968,-89.9549 -13.2344,-48.4231 -24.4307,-87.3592 -24.8806,-86.5246 -0.6826,1.2665 -45.4669,164.3586 -48.0418,174.955 l -0.8352,3.4375 49.6442,0 c 44.0523,0 49.5615,-0.2155 48.9102,-1.913 z m -162.0334,119.2883 c 0,-1.2384 26.167,-90.2655 75.2808,-256.1253 9.6699,-32.6563 17.8471,-60.64056 18.1712,-62.18746 0.5792,-2.7639 0.9104,-2.8125 19.1408,-2.8125 l 18.5513,0 2.4999,8.43746 c 13.5286,45.6623 82.7258,279.8621 86.515,292.8125 2.7156,9.2812 5.235,17.8594 5.5985,19.0625 0.605,2.0022 -0.667,2.1875 -15.0134,2.1875 l -15.6742,0 -1.9035,-6.5625 c -1.0469,-3.6094 -6.8948,-24.5625 -12.9953,-46.5625 l -11.0916,-40 -56.2069,-0.3251 -56.2069,-0.3251 -13.012,46.8876 -13.0121,46.8876 -15.3207,0 c -10.3072,0 -15.3209,-0.4499 -15.3209,-1.3747 z m -207.5,-159.907 0,-161.28176 19.6002,0.3443 19.6003,0.3442 9.581,21.87496 c 5.2696,12.0312 26.881,61.25 48.0254,109.375 21.1443,48.125 44.4347,101.2143 51.7562,117.9763 l 13.3119,30.4764 0.3179,-140.1639 0.3179,-140.16376 14.3696,0 14.3696,0 0,161.28166 0,161.2818 -19.5991,-0.3443 -19.5992,-0.3442 -61.3383,-139.8197 -61.3384,-139.8197 -0.3179,140.1322 -0.3179,140.1322 -14.3696,0 -14.3696,0 0,-161.2817 z m -191.25,0.032 0,-161.24996 80,0 80,0 0,12.49996 0,12.5 -65.625,0 -65.625,0 0,58.125 0,58.125 61.25,0 61.25,0 0,12.5 0,12.5 -61.25,0 -61.25,0 0,65.625 0,65.625 67.5,0 67.5,0 0,12.5 0,12.5 -81.875,0 -81.875,0 0,-161.25 z m -182.9166,160.4167 c -0.4584,-0.4584 -0.8334,-73.0209 -0.8334,-161.25 l 0,-160.41666 15,0 15,0 0,148.74996 0,148.75 66.875,0 66.875,0 0,12.5 0,12.5 -81.0416,0 c -44.573,0 -81.4168,-0.375 -81.875,-0.8333 z m -72.0834,-160.4167 0,-161.24996 14.375,0 14.375,0 0,161.24996 0,161.25 -14.375,0 -14.375,0 0,-161.25 z m -115.625,-13.1305 c 19.5683,-4.1084 34.5657,-15.1898 41.9082,-30.9653 5.003,-10.7489 7.0658,-26.9085 5.2403,-41.0507 -2.5276,-19.5803 -8.9821,-31.6107 -21.4628,-40.0036 -13.5187,-9.0912 -25.5662,-11.078 -67.24816,-11.0905 l -31.5625,-0.01 0,62.5 0,62.5 32.1875,-0.022 c 23.44096,-0.016 34.56516,-0.521 40.93746,-1.8588 z m -102.29159,173.5472 c -0.45837,-0.4584 -0.83337,-73.056 -0.83337,-161.3281 l 0,-160.49476 58.4375,0.4596 c 64.65946,0.5086 64.30856,0.47 82.62886,9.11066 18.0927,8.5334 32.6302,27.6448 37.0531,48.7109 2.4333,11.5894 2.3944,35.7013 -0.077,47.8652 -1.0768,5.2991 -4.1415,14.1824 -6.8106,19.7405 -8.4918,17.6829 -20.3244,28.1301 -38.9744,34.4111 l -9.7,3.2668 6.0156,0.7124 c 14.984,1.7747 28.6454,9.5072 35.6522,20.1796 9.5267,14.5108 11.764,26.2577 13.3098,69.886 0.7125,20.1087 1.9794,38.3894 2.9996,43.2826 1.7309,8.3011 6.9202,20.3327 9.4417,21.8911 3.8047,2.3515 -0.24,3.1397 -16.1115,3.1397 l -17.3853,0 -2.6563,-7.8125 c -3.1887,-9.3778 -4.6172,-23.3412 -6.2976,-61.5625 -1.7882,-40.6699 -5.4712,-55.0901 -16.6496,-65.1892 -11.103,-10.0309 -19.7664,-11.7244 -64.3134,-12.5721 l -36.56254,-0.6958 0,73.916 0,73.9161 -14.16662,0 c -7.79175,0 -14.54175,-0.375 -15,-0.8333 z m -125.0065,-28.1278 c 31.61463,-9.6056 47.54075,-33.3514 54.352,-81.0389 1.15888,-8.1135 1.6825,-24.7433 1.653,-52.5 -0.0387,-36.6874 -0.32012,-42.1804 -2.90037,-56.6719 -8.104,-45.5154 -23.592,-66.4278 -55.8065,-75.3517 -5.8385,-1.6173 -15.04588,-2.2062 -41.5625,-2.6582 l -34.0625,-0.5807 0,136.5125 0,136.5125 34.0625,-0.562 c 31.79212,-0.5245 34.7425,-0.7685 44.26437,-3.6616 z m -108.32687,-132.1829 0,-161.35596 45.9375,0.039 c 59.47387,0.05 70.62825,1.4823 92.1875,11.83726 39.7515,19.0929 56.90475,63.9672 56.85962,148.7491 -0.0487,92.7082 -19.74912,138.0384 -67.1405,154.4947 -17.63825,6.1247 -20.79387,6.4175 -75.65662,7.0196 l -52.1875,0.5728 0,-161.356 z m -80.00513,40.8315 c 0,-0.8594 -7.02062,-27.1563 -15.59525,-58.4375 -8.5745,-31.2812 -19.37462,-70.7969 -24.00025,-87.8125 -4.6255,-17.0156 -8.726,-30.9375 -9.11225,-30.9375 -0.62212,0 -47.11675,168.4876 -48.5195,175.8254 l -0.55912,2.9246 48.89575,0 c 38.286,0 48.89462,-0.339 48.89062,-1.5625 z m -161.883,118.7872 c 0.309,-0.8798 5.6875,-19.0372 11.95213,-40.3497 6.26475,-21.3125 19.53875,-66.3125 29.49775,-100 41.85475,-141.5779 52.93825,-179.24646 52.93825,-179.91676 0,-0.3895 8.34025,-0.7082 18.534,-0.7082 l 18.534,0 5.82375,19.68746 c 35.33725,119.459 44.22112,149.5051 48.3245,163.4375 22.32525,75.8025 40.003,135.3782 40.71862,137.2259 0.80338,2.0744 -0.2295,2.2021 -15.16725,1.875 l -16.02925,-0.3509 -4.15962,-15 c -6.92738,-24.9815 -17.947,-64.5909 -19.90913,-71.5625 l -1.847,-6.5625 -56.1375,0 -56.1375,0 -0.71087,2.8125 c -0.391,1.5469 -6.189,22.5 -12.88463,46.5625 l -12.17362,43.75 -15.86425,0.3497 c -12.46225,0.2746 -15.74388,0.01 -15.30238,-1.25 z m -271.86187,-159.7247 0,-161.24996 25.3125,0.01 25.3125,0.01 14.77287,54.67826 c 39.45038,146.0152 62.53488,230.2873 62.9645,229.8576 0.522,-0.522 4.9065,-16.6015 68.38775,-250.8043 l 8.9785,-33.12496 24.01075,-0.3395 24.01063,-0.3395 0,161.27696 0,161.277 -14.375,0 -14.375,0 -0.13838,-144.6875 c -0.0763,-79.5781 -0.0213,-146.0938 0.12125,-147.8125 0.49375,-5.9373 -1.03162,-1.7993 -6.68112,18.125 -3.11913,11 -19.99725,70.625 -37.50688,132.5 -17.50962,61.875 -33.711,119.1085 -36.003,127.1856 l -4.16725,14.6856 -13.80825,0 -13.80825,0 -22.33337,-79.0625 c -12.28325,-43.4844 -26.4005,-93.4063 -31.37163,-110.9375 -4.971,-17.5313 -13.38837,-47.3438 -18.70525,-66.25 -5.31675,-18.9063 -10.14062,-35.2188 -10.71949,-36.25 -0.579,-1.0313 -1.06988,64.3593 -1.09075,145.3125 l -0.0376,147.1872 -14.375,0 -14.375,0 0,-161.25 z m -121.86876,38.4375 c -0.366512,-1.5469 -6.28915,-32.3438 -13.161412,-68.4375 -6.87225,-36.0938 -12.8418,-67.0313 -13.265663,-68.75 -0.674225,-2.734 -26.63985,131.3488 -26.6879,137.8125 -0.015,2.0161 2.091775,2.1875 26.88255,2.1875 l 26.898813,0 -0.666388,-2.8125 z m -154.381237,121.2151 c 0,-0.8786 5.08585,-21.5504 11.301887,-45.9375 6.21605,-24.387 15.8156,-62.0588 21.33235,-83.7151 5.516763,-21.6563 12.484925,-48.9375 15.484838,-60.625 2.9999,-11.6875 11.156062,-43.75 18.124787,-71.25 6.968738,-27.5 13.2176498,-52.1094 13.8864628,-54.68746 l 1.216037,-4.6875 47.7643132,0.031 47.764325,0.031 39.791867,160.28156 c 21.8855,88.1549 39.74488,160.7036 39.6875,161.2192 -0.13737,1.234 -78.854367,1.2216 -78.854367,-0.013 0,-0.9671 -7.6665,-41.776 -10.098625,-53.7555 l -1.336125,-6.5804 -38.267388,0.3304 -38.2674372,0.3304 -2.8395,15.625 c -1.561725,8.5938 -4.065413,22.2344 -5.563775,30.3125 l -2.724275,14.6875 -39.2014378,0 c -30.984587,0 -39.201437,-0.3348 -39.201437,-1.5974 z m -375.000003,-128.4026 0,-130 -33.75,0 -33.75,0 0,-31.25 0,-31.24996 105.625,0 105.625,0 0,31.24996 0,31.25 -33.75,0 -33.75,0 0,130 0,130 -38.125,0 -38.125,0 0,-130 z m -627.50004,-31.2629 0,-161.26276 55.8787,0.3253 55.87874,0.3254 19.68409,104.37496 c 10.82623,57.4062 19.76013,104.6563 19.85312,105 0.30448,1.1256 4.57618,-21.8372 21.16048,-113.75 8.99357,-49.8438 16.63108,-91.89056 16.97225,-93.43746 l 0.62028,-2.8125 54.97619,0 54.97619,0 0,161.24996 0,161.25 -35.625,0 -35.625,0 -0.1361,-123.4375 -0.1361,-123.4375 -12.80519,64.375 c -7.04286,35.4063 -18.01816,90.9531 -24.38957,123.4375 l -11.58438,59.0625 -29.60631,0 -29.6063,0 -25.55555,-123.6903 -25.55554,-123.6903 -0.3186,123.6903 -0.3185,123.6903 -34.369,0 -34.3689,0 0,-161.2629 z m 863.12504,165.7572 c -50.39009,-8.4153 -73.82089,-36.1435 -78.1158,-92.4428 -0.70204,-9.2026 -1.25446,-64.3887 -1.25616,-125.489 l -0.003,-109.06246 38.125,0 38.125,0 0,117.84526 c 0,74.6082 0.48016,121.6746 1.3087,128.2824 2.82548,22.5336 13.20667,32.5562 32.14632,31.0359 10.92534,-0.877 17.08965,-5.128 22.16998,-15.2886 6.44824,-41.1887 3.26587,-17.5981 4.09114,-134.6875 l 0.34115,-127.18746 38.142,0 38.142003,0 -0.37824,124.68746 c 0.01797,117.8434 3.708909,81.6887 -3.78313,137.1875 -5.180053,19.017 -10.882763,29.5508 -22.066473,40.7604 -11.29037,11.3166 -24.60633,18.419 -42.10276,22.4567 -14.4358,3.3314 -50.07214,4.3761 -64.88569,1.9022 z m -448.75,0.027 c -37.09986,-6.1025 -59.71905,-23.1175 -70.63868,-53.1368 -7.98918,-21.9633 -7.94567,-21.1708 -8.43166,-153.572 l -0.44161,-120.31246 38.14275,0 38.14275,0 0.37692,125.31246 c 0.35854,119.193 0.49229,125.6327 2.73898,131.8699 5.22539,14.5066 15.34495,21.1929 30.26259,19.9955 10.9453,-0.8786 17.14123,-5.113 22.33228,-15.2621 6.05245,-40.1124 3.49125,-28.2581 4.10682,-134.6391 l 0.34115,-127.27666 38.09635,0 38.09636,0 -0.008,118.43746 c -0.007,128.5592 -0.18181,132.3833 -6.93158,152.5019 -4.58848,13.6767 -8.79413,20.8999 -17.62656,30.2737 -11.8616,12.5887 -25.99013,19.9478 -47.24485,24.6084 -12.05355,2.643 -48.23623,3.351 -61.31464,1.1998 z"
           style="fill:#013893;fill-opacity:1"
           id="path5574"
           inkscape:connector-curvature="0" />
        <path
           id="path5572"
           d="m 213.93829,885.89134 c -1.04325,-1.0432 -1.1175,-85.7322 -0.0775,-88.4424 0.66188,-1.725 4.48888,-1.9772 30,-1.9772 l 29.24125,0 0.0275,-22.8125 0.0275,-22.8125 7.55063,22.8125 7.55075,22.8125 28.67237,0 c 15.76975,0 29.09425,0.1406 29.60987,0.3125 0.51563,0.1719 4.97488,-11.5 9.9095,-25.9375 l 8.972,-26.25 0.09,25.9221 0.09,25.9222 95.9375,0.3278 c 52.76563,0.1804 96.4245,-0.047 97.01988,-0.5044 0.59525,-0.4578 1.02125,-10.7234 0.94662,-22.8125 -0.075,-12.0891 0.31,-21.9802 0.8545,-21.9802 0.54463,0 4.23538,10.1349 8.20163,22.522 l 7.21137,22.5221 30.09175,-0.3346 30.09175,-0.3345 8.26,-24.6007 c 4.543,-13.5303 8.55013,-24.883 8.90488,-25.2282 0.35462,-0.3451 0.79812,10.7 0.9855,24.5446 0.1875,13.8447 0.4845,25.3159 0.66012,25.4915 0.17575,0.1757 16.8885,0.4822 37.1395,0.6811 l 36.82,0.3617 0,45 0,45 -256.97625,0.3155 c -141.33687,0.1735 -257.3525,-0.061 -257.8125,-0.5209 z"
           style="fill:#00a5d2;fill-opacity:1"
           inkscape:connector-curvature="0" />
        <path
           id="path5570"
           d="m 106.85204,764.95434 0,-18.0175 20.37162,-0.42 c 22.18513,-0.4575 25.94688,-1.5247 28.43413,-8.0668 0.727,-1.9122 1.19425,-47.391 1.19425,-116.2467 0,-122.4255 0.23212,-118.1174 -6.5755,-122.007 -1.80225,-1.0298 -9.92412,-1.8222 -22.7995,-2.2246 l -20,-0.625 0,-18.125 0,-18.125 76.46238,-0.3221 76.46237,-0.322 1.272,4.072 c 0.6995,2.2397 6.67962,21.5096 13.28913,42.8221 6.6095,21.3125 15.89137,51.125 20.62625,66.25 4.735,15.125 13.42062,42.9177 19.30162,61.7614 5.88087,18.8438 10.89763,34.4667 11.1485,34.7175 0.25075,0.2508 1.61175,-2.7919 3.0245,-6.7615 3.09275,-8.6903 3.58675,-10.0965 41.1765,-117.2174 l 29.82725,-85 74.1455,0 74.14562,0 32.66063,104.6408 c 18.8685,60.4524 33.05075,103.9436 33.58462,102.9897 1.18625,-2.1197 2.93925,-7.0308 27.93263,-78.2555 11.45937,-32.6562 24.20175,-68.9375 28.3165,-80.625 4.11475,-11.6875 9.6235,-27.4375 12.24162,-35 l 4.76038,-13.75 73.561,0 73.561,0 0,18.125 0,18.125 -21.66813,0.625 -21.66812,0.625 -3.64438,4.0822 -3.64437,4.0822 0,112.7928 c 0,104.9137 0.1545,113.0922 2.1875,117.079 4.36625,8.5627 6.89062,9.4169 29.14737,9.8623 l 19.91313,0.3985 0,18.039 0,18.039 -85,0 -85,0 0,-18.0196 0,-18.0197 20.9375,-0.4178 c 17.96925,-0.3587 21.50025,-0.7584 24.90687,-2.8199 8.34238,-5.0483 7.99375,0.5605 7.619,-122.5515 l -0.33837,-111.2036 -46.25,136.503 -46.25,136.5029 -20.625,0.01 -20.625,0.01 -19.78725,-60.9337 c -10.883,-33.5136 -30.85175,-94.9326 -44.375,-136.4867 l -24.58775,-75.5529 -0.379,107.4279 c -0.2635,74.6624 0.0387,109.3342 0.99237,113.678 2.878,13.1157 8.09263,15.625 32.4715,15.625 l 17.54013,0 0,18.125 0,18.125 -84.375,0 -84.375,0 0,-18.125 0,-18.125 19.0625,-0.027 c 15.91175,-0.023 19.91325,-0.4138 24.20937,-2.3648 9.98475,-4.5342 9.23875,5.2663 9.14,-120.0734 -0.08,-101.659 -0.2625,-111.4514 -1.9925,-106.9094 -1.0475,2.75 -7.1465,20.4688 -13.5535,39.375 -6.407,18.9063 -21.29512,62.7813 -33.08487,97.5 -11.78975,34.7188 -26.38775,77.75 -32.44013,95.625 l -11.00437,32.5 -20.67525,0.3422 -20.67525,0.3422 -2.6895,-8.4672 c -1.47925,-4.657 -7.102,-21.9672 -12.495,-38.4672 -5.39313,-16.5 -16.09588,-49.4062 -23.784,-73.125 -27.41788,-84.5875 -47.38,-145.6731 -48.60988,-148.75 -0.847,-2.1189 -1.27462,32.9785 -1.32837,109.019 l -0.0787,112.144 3.69,4.2027 c 5.101,5.8097 10.76712,7.1343 30.5175,7.1343 l 17.0425,0 0,18.125 0,18.125 -76.25,0 -76.25,0 0,-18.0174 z"
           style="fill:#013893;fill-opacity:1"
           inkscape:connector-curvature="0" />
        <path
           id="path5568"
           d="m 223.10204,731.72174 c -2.44263,-2.4426 -2.49775,-4.0986 -2.40138,-72.1875 0.0537,-38.3281 0.33,-69.125 0.6125,-68.4375 0.28263,0.6875 6.18738,18.6875 13.12175,40 6.93438,21.3125 17.065,52.4016 22.5125,69.0869 5.44763,16.6853 9.90463,31.1697 9.90463,32.1875 0,1.5594 -3.24588,1.8506 -20.625,1.8506 -18.95838,0 -20.827,-0.202 -23.125,-2.5 z"
           style="fill:#00a5d2;fill-opacity:1"
           inkscape:connector-curvature="0" />
        <path
           id="path5566"
           d="m 369.35204,733.06324 c 0,-0.6371 6.65212,-21.309 14.7825,-45.9375 8.1305,-24.6284 19.23988,-59.0594 24.6875,-76.5131 l 9.905,-31.7342 0.32237,75.3749 c 0.29426,68.8056 0.14113,75.575 -1.75624,77.6716 -1.87338,2.0701 -4.34238,2.2968 -25.00988,2.2968 -13.2465,0 -22.93125,-0.4893 -22.93125,-1.1585 z"
           style="fill:#00a5d2;fill-opacity:1"
           inkscape:connector-curvature="0" />
        <path
           id="path5564"
           d="m 511.17879,731.16214 -3.05963,-3.0597 0.12875,-68.303 c 0.0713,-37.5667 0.56725,-67.8305 1.10313,-67.2529 0.536,0.5776 10.96337,31.9877 23.17212,69.8002 12.20863,37.8125 22.45613,69.4531 22.772,70.3125 0.44488,1.2104 -4.11575,1.5625 -20.24125,1.5625 -20.418,0 -20.874,-0.058 -23.87512,-3.0596 z"
           style="fill:#00a5d2;fill-opacity:1"
           inkscape:connector-curvature="0" />
        <path
           id="path5562"
           d="m 656.85204,732.85074 c 0,-0.7541 8.12987,-26.2072 18.06637,-56.5625 9.93638,-30.3553 21.13013,-64.754 24.87488,-76.4415 l 6.80862,-21.25 0.12513,75.8666 0.125,75.8666 -2.77813,1.9459 c -2.2615,1.584 -6.91062,1.9459 -25,1.9459 -15.289,0 -22.22187,-0.4277 -22.22187,-1.371 z"
           style="fill:#00a5d2;fill-opacity:1"
           inkscape:connector-curvature="0" />
        <path
           id="path5558"
           d="m 299.35416,542.34964 -29.37287,-94.3779 -26.70662,0 -26.7065,0 0.83,-5.5346 c 2.81137,-18.748 13.66875,-51.8157 23.25275,-70.82 20.20787,-40.0706 53.33475,-76.9253 91.20112,-101.4641 59.86738,-38.7962 135.94988,-50.6991 205.72688,-32.1854 45.51237,12.0755 84.37912,34.9591 118.1195,69.5451 27.5715,28.2626 46.36212,58.4838 59.05525,94.98 4.09475,11.7734 10.84837,38.8181 10.84837,43.442 0,1.8088 -2.57525,2.037 -22.99125,2.037 -20.72287,0 -23.07937,0.2158 -23.8845,2.1875 -5.34862,13.0983 -53.181,156.9068 -58.83075,176.875 -1.313,4.6406 -2.72712,8.4375 -3.1425,8.4375 -0.41537,0 -1.45062,-2.3906 -2.3005,-5.3125 -0.84987,-2.9219 -13.3845,-43.2812 -27.85462,-89.6875 -14.47025,-46.4062 -26.829,-86.2071 -27.46388,-88.4463 l -1.15437,-4.0714 -83.34213,0.3214 -83.342,0.3213 -7.18412,20.625 c -10.89588,31.2816 -44.03688,131.1398 -49.15963,148.125 -2.48825,8.25 -4.90675,15.9857 -5.37438,17.1904 -0.53387,1.3751 -11.78237,-32.9353 -30.22325,-92.1875 z"
           style="fill:#00a5d2;fill-opacity:1"
           inkscape:connector-curvature="0" />
      </g>
    </g>
  </g>
</svg>
